<?xml version="1.0" encoding="utf-8" standalone="no"?>
<!DOCTYPE svg PUBLIC "-//W3C//DTD SVG 1.1//EN"
  "http://www.w3.org/Graphics/SVG/1.1/DTD/svg11.dtd">
<svg xmlns:xlink="http://www.w3.org/1999/xlink" width="576pt" height="432pt" viewBox="0 0 576 432" xmlns="http://www.w3.org/2000/svg" version="1.1">
 <metadata>
  <rdf:RDF xmlns:dc="http://purl.org/dc/elements/1.1/" xmlns:cc="http://creativecommons.org/ns#" xmlns:rdf="http://www.w3.org/1999/02/22-rdf-syntax-ns#">
   <cc:Work>
    <dc:type rdf:resource="http://purl.org/dc/dcmitype/StillImage"/>
    <dc:date>2023-02-14T00:15:05.190258</dc:date>
    <dc:format>image/svg+xml</dc:format>
    <dc:creator>
     <cc:Agent>
      <dc:title>Matplotlib v3.5.3, https://matplotlib.org/</dc:title>
     </cc:Agent>
    </dc:creator>
   </cc:Work>
  </rdf:RDF>
 </metadata>
 <defs>
  <style type="text/css">*{stroke-linejoin: round; stroke-linecap: butt}</style>
 </defs>
 <g id="figure_1">
  <g id="patch_1">
   <path d="M 0 432 
L 576 432 
L 576 0 
L 0 0 
z
" style="fill: #ffffff"/>
  </g>
  <g id="axes_1">
   <g id="patch_2">
    <path d="M 72 384.48 
L 518.4 384.48 
L 518.4 51.84 
L 72 51.84 
z
" style="fill: #ffffff"/>
   </g>
   <g id="matplotlib.axis_1">
    <g id="xtick_1">
     <g id="line2d_1">
      <path d="M 92.290909 384.48 
L 92.290909 51.84 
" clip-path="url(#p1af70d1c62)" style="fill: none; stroke: #cccccc; stroke-width: 0.8; stroke-linecap: round"/>
     </g>
     <g id="line2d_2"/>
     <g id="text_1">
      <!-- −40 -->
      <g style="fill: #262626" transform="translate(83.809659 395.137812)scale(0.1 -0.1)">
       <defs>
        <path id="ArialMT-2212" d="M 3381 1997 
L 356 1997 
L 356 2522 
L 3381 2522 
L 3381 1997 
z
" transform="scale(0.015625)"/>
        <path id="ArialMT-34" d="M 2069 0 
L 2069 1097 
L 81 1097 
L 81 1613 
L 2172 4581 
L 2631 4581 
L 2631 1613 
L 3250 1613 
L 3250 1097 
L 2631 1097 
L 2631 0 
L 2069 0 
z
M 2069 1613 
L 2069 3678 
L 634 1613 
L 2069 1613 
z
" transform="scale(0.015625)"/>
        <path id="ArialMT-30" d="M 266 2259 
Q 266 3072 433 3567 
Q 600 4063 929 4331 
Q 1259 4600 1759 4600 
Q 2128 4600 2406 4451 
Q 2684 4303 2865 4023 
Q 3047 3744 3150 3342 
Q 3253 2941 3253 2259 
Q 3253 1453 3087 958 
Q 2922 463 2592 192 
Q 2263 -78 1759 -78 
Q 1097 -78 719 397 
Q 266 969 266 2259 
z
M 844 2259 
Q 844 1131 1108 757 
Q 1372 384 1759 384 
Q 2147 384 2411 759 
Q 2675 1134 2675 2259 
Q 2675 3391 2411 3762 
Q 2147 4134 1753 4134 
Q 1366 4134 1134 3806 
Q 844 3388 844 2259 
z
" transform="scale(0.015625)"/>
       </defs>
       <use xlink:href="#ArialMT-2212"/>
       <use xlink:href="#ArialMT-34" x="58.398438"/>
       <use xlink:href="#ArialMT-30" x="114.013672"/>
      </g>
     </g>
    </g>
    <g id="xtick_2">
     <g id="line2d_3">
      <path d="M 173.454545 384.48 
L 173.454545 51.84 
" clip-path="url(#p1af70d1c62)" style="fill: none; stroke: #cccccc; stroke-width: 0.8; stroke-linecap: round"/>
     </g>
     <g id="line2d_4"/>
     <g id="text_2">
      <!-- −30 -->
      <g style="fill: #262626" transform="translate(164.973295 395.137812)scale(0.1 -0.1)">
       <defs>
        <path id="ArialMT-33" d="M 269 1209 
L 831 1284 
Q 928 806 1161 595 
Q 1394 384 1728 384 
Q 2125 384 2398 659 
Q 2672 934 2672 1341 
Q 2672 1728 2419 1979 
Q 2166 2231 1775 2231 
Q 1616 2231 1378 2169 
L 1441 2663 
Q 1497 2656 1531 2656 
Q 1891 2656 2178 2843 
Q 2466 3031 2466 3422 
Q 2466 3731 2256 3934 
Q 2047 4138 1716 4138 
Q 1388 4138 1169 3931 
Q 950 3725 888 3313 
L 325 3413 
Q 428 3978 793 4289 
Q 1159 4600 1703 4600 
Q 2078 4600 2393 4439 
Q 2709 4278 2876 4000 
Q 3044 3722 3044 3409 
Q 3044 3113 2884 2869 
Q 2725 2625 2413 2481 
Q 2819 2388 3044 2092 
Q 3269 1797 3269 1353 
Q 3269 753 2831 336 
Q 2394 -81 1725 -81 
Q 1122 -81 723 278 
Q 325 638 269 1209 
z
" transform="scale(0.015625)"/>
       </defs>
       <use xlink:href="#ArialMT-2212"/>
       <use xlink:href="#ArialMT-33" x="58.398438"/>
       <use xlink:href="#ArialMT-30" x="114.013672"/>
      </g>
     </g>
    </g>
    <g id="xtick_3">
     <g id="line2d_5">
      <path d="M 254.618182 384.48 
L 254.618182 51.84 
" clip-path="url(#p1af70d1c62)" style="fill: none; stroke: #cccccc; stroke-width: 0.8; stroke-linecap: round"/>
     </g>
     <g id="line2d_6"/>
     <g id="text_3">
      <!-- −20 -->
      <g style="fill: #262626" transform="translate(246.136932 395.137812)scale(0.1 -0.1)">
       <defs>
        <path id="ArialMT-32" d="M 3222 541 
L 3222 0 
L 194 0 
Q 188 203 259 391 
Q 375 700 629 1000 
Q 884 1300 1366 1694 
Q 2113 2306 2375 2664 
Q 2638 3022 2638 3341 
Q 2638 3675 2398 3904 
Q 2159 4134 1775 4134 
Q 1369 4134 1125 3890 
Q 881 3647 878 3216 
L 300 3275 
Q 359 3922 746 4261 
Q 1134 4600 1788 4600 
Q 2447 4600 2831 4234 
Q 3216 3869 3216 3328 
Q 3216 3053 3103 2787 
Q 2991 2522 2730 2228 
Q 2469 1934 1863 1422 
Q 1356 997 1212 845 
Q 1069 694 975 541 
L 3222 541 
z
" transform="scale(0.015625)"/>
       </defs>
       <use xlink:href="#ArialMT-2212"/>
       <use xlink:href="#ArialMT-32" x="58.398438"/>
       <use xlink:href="#ArialMT-30" x="114.013672"/>
      </g>
     </g>
    </g>
    <g id="xtick_4">
     <g id="line2d_7">
      <path d="M 335.781818 384.48 
L 335.781818 51.84 
" clip-path="url(#p1af70d1c62)" style="fill: none; stroke: #cccccc; stroke-width: 0.8; stroke-linecap: round"/>
     </g>
     <g id="line2d_8"/>
     <g id="text_4">
      <!-- −10 -->
      <g style="fill: #262626" transform="translate(327.300568 395.137812)scale(0.1 -0.1)">
       <defs>
        <path id="ArialMT-31" d="M 2384 0 
L 1822 0 
L 1822 3584 
Q 1619 3391 1289 3197 
Q 959 3003 697 2906 
L 697 3450 
Q 1169 3672 1522 3987 
Q 1875 4303 2022 4600 
L 2384 4600 
L 2384 0 
z
" transform="scale(0.015625)"/>
       </defs>
       <use xlink:href="#ArialMT-2212"/>
       <use xlink:href="#ArialMT-31" x="58.398438"/>
       <use xlink:href="#ArialMT-30" x="114.013672"/>
      </g>
     </g>
    </g>
    <g id="xtick_5">
     <g id="line2d_9">
      <path d="M 416.945455 384.48 
L 416.945455 51.84 
" clip-path="url(#p1af70d1c62)" style="fill: none; stroke: #cccccc; stroke-width: 0.8; stroke-linecap: round"/>
     </g>
     <g id="line2d_10"/>
     <g id="text_5">
      <!-- 0 -->
      <g style="fill: #262626" transform="translate(414.164986 395.137812)scale(0.1 -0.1)">
       <use xlink:href="#ArialMT-30"/>
      </g>
     </g>
    </g>
    <g id="xtick_6">
     <g id="line2d_11">
      <path d="M 498.109091 384.48 
L 498.109091 51.84 
" clip-path="url(#p1af70d1c62)" style="fill: none; stroke: #cccccc; stroke-width: 0.8; stroke-linecap: round"/>
     </g>
     <g id="line2d_12"/>
     <g id="text_6">
      <!-- 10 -->
      <g style="fill: #262626" transform="translate(492.548153 395.137812)scale(0.1 -0.1)">
       <use xlink:href="#ArialMT-31"/>
       <use xlink:href="#ArialMT-30" x="55.615234"/>
      </g>
     </g>
    </g>
    <g id="text_7">
     <!-- x1 -->
     <g style="fill: #262626" transform="translate(289.919531 408.283125)scale(0.1 -0.1)">
      <defs>
       <path id="ArialMT-78" d="M 47 0 
L 1259 1725 
L 138 3319 
L 841 3319 
L 1350 2541 
Q 1494 2319 1581 2169 
Q 1719 2375 1834 2534 
L 2394 3319 
L 3066 3319 
L 1919 1756 
L 3153 0 
L 2463 0 
L 1781 1031 
L 1600 1309 
L 728 0 
L 47 0 
z
" transform="scale(0.015625)"/>
      </defs>
      <use xlink:href="#ArialMT-78"/>
      <use xlink:href="#ArialMT-31" x="50"/>
     </g>
    </g>
   </g>
   <g id="matplotlib.axis_2">
    <g id="ytick_1">
     <g id="line2d_13">
      <path d="M 72 354.24 
L 518.4 354.24 
" clip-path="url(#p1af70d1c62)" style="fill: none; stroke: #cccccc; stroke-width: 0.8; stroke-linecap: round"/>
     </g>
     <g id="line2d_14"/>
     <g id="text_8">
      <!-- −20 -->
      <g style="fill: #262626" transform="translate(51.5375 357.818906)scale(0.1 -0.1)">
       <use xlink:href="#ArialMT-2212"/>
       <use xlink:href="#ArialMT-32" x="58.398438"/>
       <use xlink:href="#ArialMT-30" x="114.013672"/>
      </g>
     </g>
    </g>
    <g id="ytick_2">
     <g id="line2d_15">
      <path d="M 72 293.76 
L 518.4 293.76 
" clip-path="url(#p1af70d1c62)" style="fill: none; stroke: #cccccc; stroke-width: 0.8; stroke-linecap: round"/>
     </g>
     <g id="line2d_16"/>
     <g id="text_9">
      <!-- 0 -->
      <g style="fill: #262626" transform="translate(62.939062 297.338906)scale(0.1 -0.1)">
       <use xlink:href="#ArialMT-30"/>
      </g>
     </g>
    </g>
    <g id="ytick_3">
     <g id="line2d_17">
      <path d="M 72 233.28 
L 518.4 233.28 
" clip-path="url(#p1af70d1c62)" style="fill: none; stroke: #cccccc; stroke-width: 0.8; stroke-linecap: round"/>
     </g>
     <g id="line2d_18"/>
     <g id="text_10">
      <!-- 20 -->
      <g style="fill: #262626" transform="translate(57.378125 236.858906)scale(0.1 -0.1)">
       <use xlink:href="#ArialMT-32"/>
       <use xlink:href="#ArialMT-30" x="55.615234"/>
      </g>
     </g>
    </g>
    <g id="ytick_4">
     <g id="line2d_19">
      <path d="M 72 172.8 
L 518.4 172.8 
" clip-path="url(#p1af70d1c62)" style="fill: none; stroke: #cccccc; stroke-width: 0.8; stroke-linecap: round"/>
     </g>
     <g id="line2d_20"/>
     <g id="text_11">
      <!-- 40 -->
      <g style="fill: #262626" transform="translate(57.378125 176.378906)scale(0.1 -0.1)">
       <use xlink:href="#ArialMT-34"/>
       <use xlink:href="#ArialMT-30" x="55.615234"/>
      </g>
     </g>
    </g>
    <g id="ytick_5">
     <g id="line2d_21">
      <path d="M 72 112.32 
L 518.4 112.32 
" clip-path="url(#p1af70d1c62)" style="fill: none; stroke: #cccccc; stroke-width: 0.8; stroke-linecap: round"/>
     </g>
     <g id="line2d_22"/>
     <g id="text_12">
      <!-- 60 -->
      <g style="fill: #262626" transform="translate(57.378125 115.898906)scale(0.1 -0.1)">
       <defs>
        <path id="ArialMT-36" d="M 3184 3459 
L 2625 3416 
Q 2550 3747 2413 3897 
Q 2184 4138 1850 4138 
Q 1581 4138 1378 3988 
Q 1113 3794 959 3422 
Q 806 3050 800 2363 
Q 1003 2672 1297 2822 
Q 1591 2972 1913 2972 
Q 2475 2972 2870 2558 
Q 3266 2144 3266 1488 
Q 3266 1056 3080 686 
Q 2894 316 2569 119 
Q 2244 -78 1831 -78 
Q 1128 -78 684 439 
Q 241 956 241 2144 
Q 241 3472 731 4075 
Q 1159 4600 1884 4600 
Q 2425 4600 2770 4297 
Q 3116 3994 3184 3459 
z
M 888 1484 
Q 888 1194 1011 928 
Q 1134 663 1356 523 
Q 1578 384 1822 384 
Q 2178 384 2434 671 
Q 2691 959 2691 1453 
Q 2691 1928 2437 2201 
Q 2184 2475 1800 2475 
Q 1419 2475 1153 2201 
Q 888 1928 888 1484 
z
" transform="scale(0.015625)"/>
       </defs>
       <use xlink:href="#ArialMT-36"/>
       <use xlink:href="#ArialMT-30" x="55.615234"/>
      </g>
     </g>
    </g>
    <g id="ytick_6">
     <g id="line2d_23">
      <path d="M 72 51.84 
L 518.4 51.84 
" clip-path="url(#p1af70d1c62)" style="fill: none; stroke: #cccccc; stroke-width: 0.8; stroke-linecap: round"/>
     </g>
     <g id="line2d_24"/>
     <g id="text_13">
      <!-- 80 -->
      <g style="fill: #262626" transform="translate(57.378125 55.418906)scale(0.1 -0.1)">
       <defs>
        <path id="ArialMT-38" d="M 1131 2484 
Q 781 2613 612 2850 
Q 444 3088 444 3419 
Q 444 3919 803 4259 
Q 1163 4600 1759 4600 
Q 2359 4600 2725 4251 
Q 3091 3903 3091 3403 
Q 3091 3084 2923 2848 
Q 2756 2613 2416 2484 
Q 2838 2347 3058 2040 
Q 3278 1734 3278 1309 
Q 3278 722 2862 322 
Q 2447 -78 1769 -78 
Q 1091 -78 675 323 
Q 259 725 259 1325 
Q 259 1772 486 2073 
Q 713 2375 1131 2484 
z
M 1019 3438 
Q 1019 3113 1228 2906 
Q 1438 2700 1772 2700 
Q 2097 2700 2305 2904 
Q 2513 3109 2513 3406 
Q 2513 3716 2298 3927 
Q 2084 4138 1766 4138 
Q 1444 4138 1231 3931 
Q 1019 3725 1019 3438 
z
M 838 1322 
Q 838 1081 952 856 
Q 1066 631 1291 507 
Q 1516 384 1775 384 
Q 2178 384 2440 643 
Q 2703 903 2703 1303 
Q 2703 1709 2433 1975 
Q 2163 2241 1756 2241 
Q 1359 2241 1098 1978 
Q 838 1716 838 1322 
z
" transform="scale(0.015625)"/>
       </defs>
       <use xlink:href="#ArialMT-38"/>
       <use xlink:href="#ArialMT-30" x="55.615234"/>
      </g>
     </g>
    </g>
    <g id="text_14">
     <!-- x2 -->
     <g style="fill: #262626" transform="translate(45.55 223.440469)rotate(-90)scale(0.1 -0.1)">
      <use xlink:href="#ArialMT-78"/>
      <use xlink:href="#ArialMT-32" x="50"/>
     </g>
    </g>
   </g>
   <g id="patch_3">
    <path d="M 455.002662 264.508232 
L 453.269715 262.45578 
L 454.486994 262.463478 
L 456.918633 209.084151 
L 458.135912 209.091849 
L 455.704273 262.471175 
L 456.921553 262.478873 
z
" clip-path="url(#p1af70d1c62)" style="fill: #1f77b4; stroke: #000000; stroke-linejoin: miter"/>
   </g>
   <g id="patch_4">
    <path d="M 174.225798 336.679293 
L 172.383453 334.64011 
L 173.600902 334.638771 
L 172.845821 239.328669 
L 174.06327 239.327331 
L 174.818352 334.637432 
L 176.035801 334.636093 
z
" clip-path="url(#p1af70d1c62)" style="fill: #1f77b4; stroke: #000000; stroke-linejoin: miter"/>
   </g>
   <g id="patch_5">
    <path d="M 312.817058 215.998166 
L 310.627491 214.007205 
L 311.842203 213.976778 
L 294.592644 118.383214 
L 295.807356 118.352786 
L 313.056915 213.94635 
L 314.271628 213.915923 
z
" clip-path="url(#p1af70d1c62)" style="fill: #1f77b4; stroke: #000000; stroke-linejoin: miter"/>
   </g>
   <g id="PolyCollection_1">
    <defs>
     <path id="mfe9b365ba7" d="M 175.692139 -91.892742 
L 175.692139 -91.48778 
L 176.709228 -91.751396 
L 177.726316 -92.015011 
L 178.743404 -92.278627 
L 179.760492 -92.542243 
L 180.77758 -92.805858 
L 181.794668 -93.069474 
L 182.811757 -93.333089 
L 183.828845 -93.596705 
L 184.845933 -93.86032 
L 185.863021 -94.123936 
L 186.880109 -94.387551 
L 187.897198 -94.651167 
L 188.914286 -94.914783 
L 189.931374 -95.178398 
L 190.948462 -95.442014 
L 191.96555 -95.705629 
L 192.982638 -95.969245 
L 193.999727 -96.23286 
L 195.016815 -96.496476 
L 196.033903 -96.760092 
L 197.050991 -97.023707 
L 198.068079 -97.287323 
L 199.085167 -97.550938 
L 200.102256 -97.814554 
L 201.119344 -98.078169 
L 202.136432 -98.341785 
L 203.15352 -98.6054 
L 204.170608 -98.869016 
L 205.187697 -99.132632 
L 206.204785 -99.396247 
L 207.221873 -99.659863 
L 208.238961 -99.923478 
L 209.256049 -100.187094 
L 210.273137 -100.450709 
L 211.290226 -100.714325 
L 212.307314 -100.977941 
L 213.324402 -101.241556 
L 214.34149 -101.505172 
L 215.358578 -101.768787 
L 216.375666 -102.032403 
L 217.392755 -102.296018 
L 218.409843 -102.559634 
L 219.426931 -102.823249 
L 220.444019 -103.086865 
L 221.461107 -103.350481 
L 222.478195 -103.614096 
L 223.495284 -103.877712 
L 224.512372 -104.141327 
L 225.52946 -104.404943 
L 226.546548 -104.668558 
L 227.563636 -104.932174 
L 228.580725 -105.195789 
L 229.597813 -105.459405 
L 230.614901 -105.723021 
L 231.631989 -105.986636 
L 232.649077 -106.250252 
L 233.666165 -106.513867 
L 234.683254 -106.777483 
L 235.700342 -107.041098 
L 236.71743 -107.304714 
L 237.734518 -107.56833 
L 238.751606 -107.831945 
L 239.768694 -108.095561 
L 240.785783 -108.359176 
L 241.802871 -108.622792 
L 242.819959 -108.886407 
L 243.837047 -109.150023 
L 244.854135 -109.413638 
L 245.871224 -109.677254 
L 246.888312 -109.94087 
L 247.9054 -110.204485 
L 248.922488 -110.468101 
L 249.939576 -110.731716 
L 250.956664 -110.995332 
L 251.973753 -111.258947 
L 252.990841 -111.522563 
L 254.007929 -111.786178 
L 255.025017 -112.049794 
L 256.042105 -112.31341 
L 257.059193 -112.577025 
L 258.076282 -112.840641 
L 259.09337 -113.104256 
L 260.110458 -113.367872 
L 261.127546 -113.631487 
L 262.144634 -113.895103 
L 263.161722 -114.158719 
L 264.178811 -114.422334 
L 265.195899 -114.68595 
L 266.212987 -114.949565 
L 267.230075 -115.213181 
L 268.247163 -115.476796 
L 269.264252 -115.740412 
L 270.28134 -116.004027 
L 271.298428 -116.267643 
L 272.315516 -116.531259 
L 273.332604 -116.794874 
L 274.349692 -117.05849 
L 275.366781 -117.322105 
L 276.383869 -117.585721 
L 277.400957 -117.849336 
L 278.418045 -118.112952 
L 279.435133 -118.376568 
L 280.452221 -118.640183 
L 281.46931 -118.903799 
L 282.486398 -119.167414 
L 283.503486 -119.43103 
L 284.520574 -119.694645 
L 285.537662 -119.958261 
L 286.554751 -120.221876 
L 287.571839 -120.485492 
L 288.588927 -120.749108 
L 289.606015 -121.012723 
L 290.623103 -121.276339 
L 291.640191 -121.539954 
L 292.65728 -121.80357 
L 293.674368 -122.067185 
L 294.691456 -122.330801 
L 295.708544 -122.594416 
L 296.725632 -122.858032 
L 297.74272 -123.121648 
L 298.759809 -123.385263 
L 299.776897 -123.648879 
L 300.793985 -123.912494 
L 301.811073 -124.17611 
L 302.828161 -124.439725 
L 303.845249 -124.703341 
L 304.862338 -124.966957 
L 305.879426 -125.230572 
L 306.896514 -125.494188 
L 307.913602 -125.757803 
L 308.93069 -126.021419 
L 309.947779 -126.285034 
L 310.964867 -126.54865 
L 311.981955 -126.812265 
L 312.999043 -127.075881 
L 314.016131 -127.339497 
L 315.033219 -127.603112 
L 316.050308 -127.866728 
L 317.067396 -128.130343 
L 318.084484 -128.393959 
L 319.101572 -128.657574 
L 320.11866 -128.92119 
L 321.135748 -129.184805 
L 322.152837 -129.448421 
L 323.169925 -129.712037 
L 324.187013 -129.975652 
L 325.204101 -130.239268 
L 326.221189 -130.502883 
L 327.238278 -130.766499 
L 328.255366 -131.030114 
L 329.272454 -131.29373 
L 330.289542 -131.557346 
L 331.30663 -131.820961 
L 332.323718 -132.084577 
L 333.340807 -132.348192 
L 334.357895 -132.611808 
L 335.374983 -132.875423 
L 336.392071 -133.139039 
L 337.409159 -133.402654 
L 338.426247 -133.66627 
L 339.443336 -133.929886 
L 340.460424 -134.193501 
L 341.477512 -134.457117 
L 342.4946 -134.720732 
L 343.511688 -134.984348 
L 344.528776 -135.247963 
L 345.545865 -135.511579 
L 346.562953 -135.775195 
L 347.580041 -136.03881 
L 348.597129 -136.302426 
L 349.614217 -136.566041 
L 350.631306 -136.829657 
L 351.648394 -137.093272 
L 352.665482 -137.356888 
L 353.68257 -137.620503 
L 354.699658 -137.884119 
L 355.716746 -138.147735 
L 356.733835 -138.41135 
L 357.750923 -138.674966 
L 358.768011 -138.938581 
L 359.785099 -139.202197 
L 360.802187 -139.465812 
L 361.819275 -139.729428 
L 362.836364 -139.993043 
L 363.853452 -140.256659 
L 364.87054 -140.520275 
L 365.887628 -140.78389 
L 366.904716 -141.047506 
L 367.921805 -141.311121 
L 368.938893 -141.574737 
L 369.955981 -141.838352 
L 370.973069 -142.101968 
L 371.990157 -142.365584 
L 373.007245 -142.629199 
L 374.024334 -142.892815 
L 375.041422 -143.15643 
L 376.05851 -143.420046 
L 377.075598 -143.683661 
L 378.092686 -143.947277 
L 379.109774 -144.210892 
L 380.126863 -144.474508 
L 381.143951 -144.738124 
L 382.161039 -145.001739 
L 383.178127 -145.265355 
L 384.195215 -145.52897 
L 385.212303 -145.792586 
L 386.229392 -146.056201 
L 387.24648 -146.319817 
L 388.263568 -146.583432 
L 389.280656 -146.847048 
L 390.297744 -147.110664 
L 391.314833 -147.374279 
L 392.331921 -147.637895 
L 393.349009 -147.90151 
L 394.366097 -148.165126 
L 395.383185 -148.428741 
L 396.400273 -148.692357 
L 397.417362 -148.955973 
L 398.43445 -149.219588 
L 399.451538 -149.483204 
L 400.468626 -149.746819 
L 401.485714 -150.010435 
L 402.502802 -150.27405 
L 403.519891 -150.537666 
L 404.536979 -150.801281 
L 405.554067 -151.064897 
L 406.571155 -151.328513 
L 407.588243 -151.592128 
L 408.605332 -151.855744 
L 409.62242 -152.119359 
L 410.639508 -152.382975 
L 411.656596 -152.64659 
L 412.673684 -152.910206 
L 413.690772 -153.173822 
L 414.707861 -153.437437 
L 415.724949 -153.701053 
L 416.742037 -153.964668 
L 417.759125 -154.228284 
L 418.776213 -154.491899 
L 419.793301 -154.755515 
L 420.81039 -155.01913 
L 421.827478 -155.282746 
L 422.844566 -155.546362 
L 423.861654 -155.809977 
L 424.878742 -156.073593 
L 425.89583 -156.337208 
L 426.912919 -156.600824 
L 427.930007 -156.864439 
L 428.947095 -157.128055 
L 429.964183 -157.39167 
L 430.981271 -157.655286 
L 431.99836 -157.918902 
L 433.015448 -158.182517 
L 434.032536 -158.446133 
L 435.049624 -158.709748 
L 436.066712 -158.973364 
L 437.0838 -159.236979 
L 438.100889 -159.500595 
L 439.117977 -159.764211 
L 440.135065 -160.027826 
L 441.152153 -160.291442 
L 442.169241 -160.555057 
L 443.186329 -160.818673 
L 444.203418 -161.082288 
L 445.220506 -161.345904 
L 446.237594 -161.609519 
L 447.254682 -161.873135 
L 448.27177 -162.136751 
L 449.288859 -162.400366 
L 450.305947 -162.663982 
L 451.323035 -162.927597 
L 452.340123 -163.191213 
L 453.357211 -163.454828 
L 453.357211 -163.524976 
L 453.357211 -163.524976 
L 452.340123 -163.880957 
L 451.323035 -164.236938 
L 450.305947 -164.592919 
L 449.288859 -164.9489 
L 448.27177 -165.30488 
L 447.254682 -165.660861 
L 446.237594 -166.016842 
L 445.220506 -166.372823 
L 444.203418 -166.728804 
L 443.186329 -167.084785 
L 442.169241 -167.440766 
L 441.152153 -167.796746 
L 440.135065 -168.152727 
L 439.117977 -168.508708 
L 438.100889 -168.864689 
L 437.0838 -169.22067 
L 436.066712 -169.576651 
L 435.049624 -169.932632 
L 434.032536 -170.288612 
L 433.015448 -170.644593 
L 431.99836 -171.000574 
L 430.981271 -171.356555 
L 429.964183 -171.712536 
L 428.947095 -172.068517 
L 427.930007 -172.424498 
L 426.912919 -172.780478 
L 425.89583 -173.136459 
L 424.878742 -173.49244 
L 423.861654 -173.848421 
L 422.844566 -174.204402 
L 421.827478 -174.560383 
L 420.81039 -174.916364 
L 419.793301 -175.272344 
L 418.776213 -175.628325 
L 417.759125 -175.984306 
L 416.742037 -176.340287 
L 415.724949 -176.696268 
L 414.707861 -177.052249 
L 413.690772 -177.40823 
L 412.673684 -177.764211 
L 411.656596 -178.120191 
L 410.639508 -178.476172 
L 409.62242 -178.832153 
L 408.605332 -179.188134 
L 407.588243 -179.544115 
L 406.571155 -179.900096 
L 405.554067 -180.256077 
L 404.536979 -180.612057 
L 403.519891 -180.968038 
L 402.502802 -181.324019 
L 401.485714 -181.68 
L 400.468626 -182.035981 
L 399.451538 -182.391962 
L 398.43445 -182.747943 
L 397.417362 -183.103923 
L 396.400273 -183.459904 
L 395.383185 -183.815885 
L 394.366097 -184.171866 
L 393.349009 -184.527847 
L 392.331921 -184.883828 
L 391.314833 -185.239809 
L 390.297744 -185.595789 
L 389.280656 -185.95177 
L 388.263568 -186.307751 
L 387.24648 -186.663732 
L 386.229392 -187.019713 
L 385.212303 -187.375694 
L 384.195215 -187.731675 
L 383.178127 -188.087656 
L 382.161039 -188.443636 
L 381.143951 -188.799617 
L 380.126863 -189.155598 
L 379.109774 -189.511579 
L 378.092686 -189.86756 
L 377.075598 -190.223541 
L 376.05851 -190.579522 
L 375.041422 -190.935502 
L 374.024334 -191.291483 
L 373.007245 -191.647464 
L 371.990157 -192.003445 
L 370.973069 -192.359426 
L 369.955981 -192.715407 
L 368.938893 -193.071388 
L 367.921805 -193.427368 
L 366.904716 -193.783349 
L 365.887628 -194.13933 
L 364.87054 -194.495311 
L 363.853452 -194.851292 
L 362.836364 -195.207273 
L 361.819275 -195.563254 
L 360.802187 -195.919234 
L 359.785099 -196.275215 
L 358.768011 -196.631196 
L 357.750923 -196.987177 
L 356.733835 -197.343158 
L 355.716746 -197.699139 
L 354.699658 -198.05512 
L 353.68257 -198.4111 
L 352.665482 -198.767081 
L 351.648394 -199.123062 
L 350.631306 -199.479043 
L 349.614217 -199.835024 
L 348.597129 -200.191005 
L 347.580041 -200.546986 
L 346.562953 -200.902967 
L 345.545865 -201.258947 
L 344.528776 -201.614928 
L 343.511688 -201.970909 
L 342.4946 -202.32689 
L 341.477512 -202.682871 
L 340.460424 -203.038852 
L 339.443336 -203.394833 
L 338.426247 -203.750813 
L 337.409159 -204.106794 
L 336.392071 -204.462775 
L 335.374983 -204.818756 
L 334.357895 -205.174737 
L 333.340807 -205.530718 
L 332.323718 -205.886699 
L 331.30663 -206.242679 
L 330.289542 -206.59866 
L 329.272454 -206.954641 
L 328.255366 -207.310622 
L 327.238278 -207.666603 
L 326.221189 -208.022584 
L 325.204101 -208.378565 
L 324.187013 -208.734545 
L 323.169925 -209.090526 
L 322.152837 -209.446507 
L 321.135748 -209.802488 
L 320.11866 -210.158469 
L 319.101572 -210.51445 
L 318.084484 -210.870431 
L 317.067396 -211.226411 
L 316.050308 -211.582392 
L 315.033219 -211.938373 
L 314.016131 -211.241219 
L 312.999043 -210.363657 
L 311.981955 -209.486094 
L 310.964867 -208.608532 
L 309.947779 -207.73097 
L 308.93069 -206.853407 
L 307.913602 -205.975845 
L 306.896514 -205.098283 
L 305.879426 -204.22072 
L 304.862338 -203.343158 
L 303.845249 -202.465596 
L 302.828161 -201.588033 
L 301.811073 -200.710471 
L 300.793985 -199.832909 
L 299.776897 -198.955346 
L 298.759809 -198.077784 
L 297.74272 -197.200222 
L 296.725632 -196.322659 
L 295.708544 -195.445097 
L 294.691456 -194.567535 
L 293.674368 -193.689972 
L 292.65728 -192.81241 
L 291.640191 -191.934848 
L 290.623103 -191.057285 
L 289.606015 -190.179723 
L 288.588927 -189.302161 
L 287.571839 -188.424598 
L 286.554751 -187.547036 
L 285.537662 -186.669474 
L 284.520574 -185.791911 
L 283.503486 -184.914349 
L 282.486398 -184.036787 
L 281.46931 -183.159224 
L 280.452221 -182.281662 
L 279.435133 -181.4041 
L 278.418045 -180.526537 
L 277.400957 -179.648975 
L 276.383869 -178.771413 
L 275.366781 -177.89385 
L 274.349692 -177.016288 
L 273.332604 -176.138726 
L 272.315516 -175.261163 
L 271.298428 -174.383601 
L 270.28134 -173.506039 
L 269.264252 -172.628476 
L 268.247163 -171.750914 
L 267.230075 -170.873352 
L 266.212987 -169.995789 
L 265.195899 -169.118227 
L 264.178811 -168.240665 
L 263.161722 -167.363102 
L 262.144634 -166.48554 
L 261.127546 -165.607978 
L 260.110458 -164.730416 
L 259.09337 -163.852853 
L 258.076282 -162.975291 
L 257.059193 -162.097729 
L 256.042105 -161.220166 
L 255.025017 -160.342604 
L 254.007929 -159.465042 
L 252.990841 -158.587479 
L 251.973753 -157.709917 
L 250.956664 -156.832355 
L 249.939576 -155.954792 
L 248.922488 -155.07723 
L 247.9054 -154.199668 
L 246.888312 -153.322105 
L 245.871224 -152.444543 
L 244.854135 -151.566981 
L 243.837047 -150.689418 
L 242.819959 -149.811856 
L 241.802871 -148.934294 
L 240.785783 -148.056731 
L 239.768694 -147.179169 
L 238.751606 -146.301607 
L 237.734518 -145.424044 
L 236.71743 -144.546482 
L 235.700342 -143.66892 
L 234.683254 -142.791357 
L 233.666165 -141.913795 
L 232.649077 -141.036233 
L 231.631989 -140.15867 
L 230.614901 -139.281108 
L 229.597813 -138.403546 
L 228.580725 -137.525983 
L 227.563636 -136.648421 
L 226.546548 -135.770859 
L 225.52946 -134.893296 
L 224.512372 -134.015734 
L 223.495284 -133.138172 
L 222.478195 -132.260609 
L 221.461107 -131.383047 
L 220.444019 -130.505485 
L 219.426931 -129.627922 
L 218.409843 -128.75036 
L 217.392755 -127.872798 
L 216.375666 -126.995235 
L 215.358578 -126.117673 
L 214.34149 -125.240111 
L 213.324402 -124.362548 
L 212.307314 -123.484986 
L 211.290226 -122.607424 
L 210.273137 -121.729861 
L 209.256049 -120.852299 
L 208.238961 -119.974737 
L 207.221873 -119.097175 
L 206.204785 -118.219612 
L 205.187697 -117.34205 
L 204.170608 -116.464488 
L 203.15352 -115.586925 
L 202.136432 -114.709363 
L 201.119344 -113.831801 
L 200.102256 -112.954238 
L 199.085167 -112.076676 
L 198.068079 -111.199114 
L 197.050991 -110.321551 
L 196.033903 -109.443989 
L 195.016815 -108.566427 
L 193.999727 -107.688864 
L 192.982638 -106.811302 
L 191.96555 -105.93374 
L 190.948462 -105.056177 
L 189.931374 -104.178615 
L 188.914286 -103.301053 
L 187.897198 -102.42349 
L 186.880109 -101.545928 
L 185.863021 -100.668366 
L 184.845933 -99.790803 
L 183.828845 -98.913241 
L 182.811757 -98.035679 
L 181.794668 -97.158116 
L 180.77758 -96.280554 
L 179.760492 -95.402992 
L 178.743404 -94.525429 
L 177.726316 -93.647867 
L 176.709228 -92.770305 
L 175.692139 -91.892742 
z
" style="stroke: #dcdcdc; stroke-opacity: 0.6"/>
    </defs>
    <g clip-path="url(#p1af70d1c62)">
     <use xlink:href="#mfe9b365ba7" x="0" y="432" style="fill: #dcdcdc; fill-opacity: 0.6; stroke: #dcdcdc; stroke-opacity: 0.6"/>
    </g>
   </g>
   <g id="line2d_25">
    <path d="M 92.290909 142.101818 
L 498.109091 284.138182 
L 498.109091 284.138182 
" clip-path="url(#p1af70d1c62)" style="fill: none; stroke-dasharray: 1.5,2.475; stroke-dashoffset: 0; stroke: #48d1cc; stroke-width: 1.5"/>
   </g>
   <g id="line2d_26">
    <path d="M 92.290909 362.128696 
L 498.109091 256.946087 
L 498.109091 256.946087 
" clip-path="url(#p1af70d1c62)" style="fill: none; stroke-dasharray: 5.55,2.4; stroke-dashoffset: 0; stroke: #ff4500; stroke-width: 1.5"/>
   </g>
   <g id="line2d_27">
    <path d="M 92.290909 412.067368 
L 498.109091 61.92 
L 498.109091 61.92 
" clip-path="url(#p1af70d1c62)" style="fill: none; stroke-dasharray: 9.6,2.4,1.5,2.4; stroke-dashoffset: 0; stroke: #f0e68c; stroke-width: 1.5"/>
   </g>
   <g id="line2d_28">
    <defs>
     <path id="mce1d9fb4b9" d="M 0 3 
C 0.795609 3 1.55874 2.683901 2.12132 2.12132 
C 2.683901 1.55874 3 0.795609 3 0 
C 3 -0.795609 2.683901 -1.55874 2.12132 -2.12132 
C 1.55874 -2.683901 0.795609 -3 0 -3 
C -0.795609 -3 -1.55874 -2.683901 -2.12132 -2.12132 
C -2.683901 -1.55874 -3 -0.795609 -3 0 
C -3 0.795609 -2.683901 1.55874 -2.12132 2.12132 
C -1.55874 2.683901 -0.795609 3 0 3 
z
" style="stroke: #32cd32"/>
    </defs>
    <g clip-path="url(#p1af70d1c62)">
     <use xlink:href="#mce1d9fb4b9" x="453.472361" y="268.515326" style="fill: #32cd32; stroke: #32cd32"/>
    </g>
   </g>
   <g id="line2d_29">
    <defs>
     <path id="m5b98cac207" d="M 0 3 
C 0.795609 3 1.55874 2.683901 2.12132 2.12132 
C 2.683901 1.55874 3 0.795609 3 0 
C 3 -0.795609 2.683901 -1.55874 2.12132 -2.12132 
C 1.55874 -2.683901 0.795609 -3 0 -3 
C -0.795609 -3 -1.55874 -2.683901 -2.12132 -2.12132 
C -2.683901 -1.55874 -3 -0.795609 -3 0 
C -3 0.795609 -2.683901 1.55874 -2.12132 2.12132 
C -1.55874 2.683901 -0.795609 3 0 3 
z
" style="stroke: #4b0082"/>
    </defs>
    <g clip-path="url(#p1af70d1c62)">
     <use xlink:href="#m5b98cac207" x="175.021263" y="340.686102" style="fill: #4b0082; stroke: #4b0082"/>
    </g>
   </g>
   <g id="line2d_30">
    <defs>
     <path id="m3fd31fdd21" d="M 0 3 
C 0.795609 3 1.55874 2.683901 2.12132 2.12132 
C 2.683901 1.55874 3 0.795609 3 0 
C 3 -0.795609 2.683901 -1.55874 2.12132 -2.12132 
C 1.55874 -2.683901 0.795609 -3 0 -3 
C -0.795609 -3 -1.55874 -2.683901 -2.12132 -2.12132 
C -2.683901 -1.55874 -3 -0.795609 -3 0 
C -3 0.795609 -2.683901 1.55874 -2.12132 2.12132 
C -1.55874 2.683901 -0.795609 3 0 3 
z
" style="stroke: #0000cd"/>
    </defs>
    <g clip-path="url(#p1af70d1c62)">
     <use xlink:href="#m3fd31fdd21" x="314.884468" y="220.009564" style="fill: #0000cd; stroke: #0000cd"/>
    </g>
   </g>
   <g id="patch_6">
    <path d="M 72 384.48 
L 72 51.84 
" style="fill: none; stroke: #cccccc; stroke-linejoin: miter; stroke-linecap: square"/>
   </g>
   <g id="patch_7">
    <path d="M 518.4 384.48 
L 518.4 51.84 
" style="fill: none; stroke: #cccccc; stroke-linejoin: miter; stroke-linecap: square"/>
   </g>
   <g id="patch_8">
    <path d="M 72 384.48 
L 518.4 384.48 
" style="fill: none; stroke: #cccccc; stroke-linejoin: miter; stroke-linecap: square"/>
   </g>
   <g id="patch_9">
    <path d="M 72 51.84 
L 518.4 51.84 
" style="fill: none; stroke: #cccccc; stroke-linejoin: miter; stroke-linecap: square"/>
   </g>
   <g id="text_15">
    <!-- $6.2x_1 + 6.6x_2 = 83$ -->
    <g style="fill: #262626" transform="translate(133.486899 154.188647)rotate(-342)scale(0.1 -0.1)">
     <defs>
      <path id="DejaVuSans-36" d="M 2113 2584 
Q 1688 2584 1439 2293 
Q 1191 2003 1191 1497 
Q 1191 994 1439 701 
Q 1688 409 2113 409 
Q 2538 409 2786 701 
Q 3034 994 3034 1497 
Q 3034 2003 2786 2293 
Q 2538 2584 2113 2584 
z
M 3366 4563 
L 3366 3988 
Q 3128 4100 2886 4159 
Q 2644 4219 2406 4219 
Q 1781 4219 1451 3797 
Q 1122 3375 1075 2522 
Q 1259 2794 1537 2939 
Q 1816 3084 2150 3084 
Q 2853 3084 3261 2657 
Q 3669 2231 3669 1497 
Q 3669 778 3244 343 
Q 2819 -91 2113 -91 
Q 1303 -91 875 529 
Q 447 1150 447 2328 
Q 447 3434 972 4092 
Q 1497 4750 2381 4750 
Q 2619 4750 2861 4703 
Q 3103 4656 3366 4563 
z
" transform="scale(0.015625)"/>
      <path id="DejaVuSans-2e" d="M 684 794 
L 1344 794 
L 1344 0 
L 684 0 
L 684 794 
z
" transform="scale(0.015625)"/>
      <path id="DejaVuSans-32" d="M 1228 531 
L 3431 531 
L 3431 0 
L 469 0 
L 469 531 
Q 828 903 1448 1529 
Q 2069 2156 2228 2338 
Q 2531 2678 2651 2914 
Q 2772 3150 2772 3378 
Q 2772 3750 2511 3984 
Q 2250 4219 1831 4219 
Q 1534 4219 1204 4116 
Q 875 4013 500 3803 
L 500 4441 
Q 881 4594 1212 4672 
Q 1544 4750 1819 4750 
Q 2544 4750 2975 4387 
Q 3406 4025 3406 3419 
Q 3406 3131 3298 2873 
Q 3191 2616 2906 2266 
Q 2828 2175 2409 1742 
Q 1991 1309 1228 531 
z
" transform="scale(0.015625)"/>
      <path id="DejaVuSans-Oblique-78" d="M 3841 3500 
L 2234 1784 
L 3219 0 
L 2559 0 
L 1819 1388 
L 531 0 
L -166 0 
L 1556 1844 
L 641 3500 
L 1300 3500 
L 1972 2234 
L 3144 3500 
L 3841 3500 
z
" transform="scale(0.015625)"/>
      <path id="DejaVuSans-31" d="M 794 531 
L 1825 531 
L 1825 4091 
L 703 3866 
L 703 4441 
L 1819 4666 
L 2450 4666 
L 2450 531 
L 3481 531 
L 3481 0 
L 794 0 
L 794 531 
z
" transform="scale(0.015625)"/>
      <path id="DejaVuSans-2b" d="M 2944 4013 
L 2944 2272 
L 4684 2272 
L 4684 1741 
L 2944 1741 
L 2944 0 
L 2419 0 
L 2419 1741 
L 678 1741 
L 678 2272 
L 2419 2272 
L 2419 4013 
L 2944 4013 
z
" transform="scale(0.015625)"/>
      <path id="DejaVuSans-3d" d="M 678 2906 
L 4684 2906 
L 4684 2381 
L 678 2381 
L 678 2906 
z
M 678 1631 
L 4684 1631 
L 4684 1100 
L 678 1100 
L 678 1631 
z
" transform="scale(0.015625)"/>
      <path id="DejaVuSans-38" d="M 2034 2216 
Q 1584 2216 1326 1975 
Q 1069 1734 1069 1313 
Q 1069 891 1326 650 
Q 1584 409 2034 409 
Q 2484 409 2743 651 
Q 3003 894 3003 1313 
Q 3003 1734 2745 1975 
Q 2488 2216 2034 2216 
z
M 1403 2484 
Q 997 2584 770 2862 
Q 544 3141 544 3541 
Q 544 4100 942 4425 
Q 1341 4750 2034 4750 
Q 2731 4750 3128 4425 
Q 3525 4100 3525 3541 
Q 3525 3141 3298 2862 
Q 3072 2584 2669 2484 
Q 3125 2378 3379 2068 
Q 3634 1759 3634 1313 
Q 3634 634 3220 271 
Q 2806 -91 2034 -91 
Q 1263 -91 848 271 
Q 434 634 434 1313 
Q 434 1759 690 2068 
Q 947 2378 1403 2484 
z
M 1172 3481 
Q 1172 3119 1398 2916 
Q 1625 2713 2034 2713 
Q 2441 2713 2670 2916 
Q 2900 3119 2900 3481 
Q 2900 3844 2670 4047 
Q 2441 4250 2034 4250 
Q 1625 4250 1398 4047 
Q 1172 3844 1172 3481 
z
" transform="scale(0.015625)"/>
      <path id="DejaVuSans-33" d="M 2597 2516 
Q 3050 2419 3304 2112 
Q 3559 1806 3559 1356 
Q 3559 666 3084 287 
Q 2609 -91 1734 -91 
Q 1441 -91 1130 -33 
Q 819 25 488 141 
L 488 750 
Q 750 597 1062 519 
Q 1375 441 1716 441 
Q 2309 441 2620 675 
Q 2931 909 2931 1356 
Q 2931 1769 2642 2001 
Q 2353 2234 1838 2234 
L 1294 2234 
L 1294 2753 
L 1863 2753 
Q 2328 2753 2575 2939 
Q 2822 3125 2822 3475 
Q 2822 3834 2567 4026 
Q 2313 4219 1838 4219 
Q 1578 4219 1281 4162 
Q 984 4106 628 3988 
L 628 4550 
Q 988 4650 1302 4700 
Q 1616 4750 1894 4750 
Q 2613 4750 3031 4423 
Q 3450 4097 3450 3541 
Q 3450 3153 3228 2886 
Q 3006 2619 2597 2516 
z
" transform="scale(0.015625)"/>
     </defs>
     <use xlink:href="#DejaVuSans-36" transform="translate(0 0.78125)"/>
     <use xlink:href="#DejaVuSans-2e" transform="translate(63.623047 0.78125)"/>
     <use xlink:href="#DejaVuSans-32" transform="translate(89.910156 0.78125)"/>
     <use xlink:href="#DejaVuSans-Oblique-78" transform="translate(153.533203 0.78125)"/>
     <use xlink:href="#DejaVuSans-31" transform="translate(212.712891 -15.625)scale(0.7)"/>
     <use xlink:href="#DejaVuSans-2b" transform="translate(279.46582 0.78125)"/>
     <use xlink:href="#DejaVuSans-36" transform="translate(382.737305 0.78125)"/>
     <use xlink:href="#DejaVuSans-2e" transform="translate(446.360352 0.78125)"/>
     <use xlink:href="#DejaVuSans-36" transform="translate(478.147461 0.78125)"/>
     <use xlink:href="#DejaVuSans-Oblique-78" transform="translate(541.770508 0.78125)"/>
     <use xlink:href="#DejaVuSans-32" transform="translate(600.950195 -15.625)scale(0.7)"/>
     <use xlink:href="#DejaVuSans-3d" transform="translate(667.703125 0.78125)"/>
     <use xlink:href="#DejaVuSans-38" transform="translate(770.974609 0.78125)"/>
     <use xlink:href="#DejaVuSans-33" transform="translate(834.597656 0.78125)"/>
    </g>
   </g>
   <g id="text_16">
    <!-- $-9.6x_1 + 13.8x_2 = 72$ -->
    <g style="fill: #262626" transform="translate(373.166186 158.213935)rotate(-43)scale(0.1 -0.1)">
     <defs>
      <path id="DejaVuSans-2212" d="M 678 2272 
L 4684 2272 
L 4684 1741 
L 678 1741 
L 678 2272 
z
" transform="scale(0.015625)"/>
      <path id="DejaVuSans-39" d="M 703 97 
L 703 672 
Q 941 559 1184 500 
Q 1428 441 1663 441 
Q 2288 441 2617 861 
Q 2947 1281 2994 2138 
Q 2813 1869 2534 1725 
Q 2256 1581 1919 1581 
Q 1219 1581 811 2004 
Q 403 2428 403 3163 
Q 403 3881 828 4315 
Q 1253 4750 1959 4750 
Q 2769 4750 3195 4129 
Q 3622 3509 3622 2328 
Q 3622 1225 3098 567 
Q 2575 -91 1691 -91 
Q 1453 -91 1209 -44 
Q 966 3 703 97 
z
M 1959 2075 
Q 2384 2075 2632 2365 
Q 2881 2656 2881 3163 
Q 2881 3666 2632 3958 
Q 2384 4250 1959 4250 
Q 1534 4250 1286 3958 
Q 1038 3666 1038 3163 
Q 1038 2656 1286 2365 
Q 1534 2075 1959 2075 
z
" transform="scale(0.015625)"/>
      <path id="DejaVuSans-37" d="M 525 4666 
L 3525 4666 
L 3525 4397 
L 1831 0 
L 1172 0 
L 2766 4134 
L 525 4134 
L 525 4666 
z
" transform="scale(0.015625)"/>
     </defs>
     <use xlink:href="#DejaVuSans-2212" transform="translate(0 0.78125)"/>
     <use xlink:href="#DejaVuSans-39" transform="translate(83.789062 0.78125)"/>
     <use xlink:href="#DejaVuSans-2e" transform="translate(147.412109 0.78125)"/>
     <use xlink:href="#DejaVuSans-36" transform="translate(179.199219 0.78125)"/>
     <use xlink:href="#DejaVuSans-Oblique-78" transform="translate(242.822266 0.78125)"/>
     <use xlink:href="#DejaVuSans-31" transform="translate(302.001953 -15.625)scale(0.7)"/>
     <use xlink:href="#DejaVuSans-2b" transform="translate(368.754883 0.78125)"/>
     <use xlink:href="#DejaVuSans-31" transform="translate(472.026367 0.78125)"/>
     <use xlink:href="#DejaVuSans-33" transform="translate(535.649414 0.78125)"/>
     <use xlink:href="#DejaVuSans-2e" transform="translate(599.272461 0.78125)"/>
     <use xlink:href="#DejaVuSans-38" transform="translate(628.43457 0.78125)"/>
     <use xlink:href="#DejaVuSans-Oblique-78" transform="translate(692.057617 0.78125)"/>
     <use xlink:href="#DejaVuSans-32" transform="translate(751.237305 -15.625)scale(0.7)"/>
     <use xlink:href="#DejaVuSans-3d" transform="translate(817.990234 0.78125)"/>
     <use xlink:href="#DejaVuSans-37" transform="translate(921.261719 0.78125)"/>
     <use xlink:href="#DejaVuSans-32" transform="translate(984.884766 0.78125)"/>
    </g>
   </g>
   <g id="text_17">
    <!-- $-13.2x_1 + 5.7x_2 = 305$ -->
    <g style="fill: #262626" transform="translate(256.484914 339.187722)rotate(-15)scale(0.1 -0.1)">
     <defs>
      <path id="DejaVuSans-35" d="M 691 4666 
L 3169 4666 
L 3169 4134 
L 1269 4134 
L 1269 2991 
Q 1406 3038 1543 3061 
Q 1681 3084 1819 3084 
Q 2600 3084 3056 2656 
Q 3513 2228 3513 1497 
Q 3513 744 3044 326 
Q 2575 -91 1722 -91 
Q 1428 -91 1123 -41 
Q 819 9 494 109 
L 494 744 
Q 775 591 1075 516 
Q 1375 441 1709 441 
Q 2250 441 2565 725 
Q 2881 1009 2881 1497 
Q 2881 1984 2565 2268 
Q 2250 2553 1709 2553 
Q 1456 2553 1204 2497 
Q 953 2441 691 2322 
L 691 4666 
z
" transform="scale(0.015625)"/>
      <path id="DejaVuSans-30" d="M 2034 4250 
Q 1547 4250 1301 3770 
Q 1056 3291 1056 2328 
Q 1056 1369 1301 889 
Q 1547 409 2034 409 
Q 2525 409 2770 889 
Q 3016 1369 3016 2328 
Q 3016 3291 2770 3770 
Q 2525 4250 2034 4250 
z
M 2034 4750 
Q 2819 4750 3233 4129 
Q 3647 3509 3647 2328 
Q 3647 1150 3233 529 
Q 2819 -91 2034 -91 
Q 1250 -91 836 529 
Q 422 1150 422 2328 
Q 422 3509 836 4129 
Q 1250 4750 2034 4750 
z
" transform="scale(0.015625)"/>
     </defs>
     <use xlink:href="#DejaVuSans-2212" transform="translate(0 0.78125)"/>
     <use xlink:href="#DejaVuSans-31" transform="translate(83.789062 0.78125)"/>
     <use xlink:href="#DejaVuSans-33" transform="translate(147.412109 0.78125)"/>
     <use xlink:href="#DejaVuSans-2e" transform="translate(211.035156 0.78125)"/>
     <use xlink:href="#DejaVuSans-32" transform="translate(237.322266 0.78125)"/>
     <use xlink:href="#DejaVuSans-Oblique-78" transform="translate(300.945312 0.78125)"/>
     <use xlink:href="#DejaVuSans-31" transform="translate(360.125 -15.625)scale(0.7)"/>
     <use xlink:href="#DejaVuSans-2b" transform="translate(426.87793 0.78125)"/>
     <use xlink:href="#DejaVuSans-35" transform="translate(530.149414 0.78125)"/>
     <use xlink:href="#DejaVuSans-2e" transform="translate(593.772461 0.78125)"/>
     <use xlink:href="#DejaVuSans-37" transform="translate(617.80957 0.78125)"/>
     <use xlink:href="#DejaVuSans-Oblique-78" transform="translate(681.432617 0.78125)"/>
     <use xlink:href="#DejaVuSans-32" transform="translate(740.612305 -15.625)scale(0.7)"/>
     <use xlink:href="#DejaVuSans-3d" transform="translate(807.365234 0.78125)"/>
     <use xlink:href="#DejaVuSans-33" transform="translate(910.636719 0.78125)"/>
     <use xlink:href="#DejaVuSans-30" transform="translate(974.259766 0.78125)"/>
     <use xlink:href="#DejaVuSans-35" transform="translate(1037.882812 0.78125)"/>
    </g>
   </g>
   <g id="text_18">
    <!-- intersection point of f0 and f1 -->
    <g style="fill: #262626" transform="translate(376.363636 203.04)scale(0.1 -0.1)">
     <defs>
      <path id="ArialMT-69" d="M 425 3934 
L 425 4581 
L 988 4581 
L 988 3934 
L 425 3934 
z
M 425 0 
L 425 3319 
L 988 3319 
L 988 0 
L 425 0 
z
" transform="scale(0.015625)"/>
      <path id="ArialMT-6e" d="M 422 0 
L 422 3319 
L 928 3319 
L 928 2847 
Q 1294 3394 1984 3394 
Q 2284 3394 2536 3286 
Q 2788 3178 2913 3003 
Q 3038 2828 3088 2588 
Q 3119 2431 3119 2041 
L 3119 0 
L 2556 0 
L 2556 2019 
Q 2556 2363 2490 2533 
Q 2425 2703 2258 2804 
Q 2091 2906 1866 2906 
Q 1506 2906 1245 2678 
Q 984 2450 984 1813 
L 984 0 
L 422 0 
z
" transform="scale(0.015625)"/>
      <path id="ArialMT-74" d="M 1650 503 
L 1731 6 
Q 1494 -44 1306 -44 
Q 1000 -44 831 53 
Q 663 150 594 308 
Q 525 466 525 972 
L 525 2881 
L 113 2881 
L 113 3319 
L 525 3319 
L 525 4141 
L 1084 4478 
L 1084 3319 
L 1650 3319 
L 1650 2881 
L 1084 2881 
L 1084 941 
Q 1084 700 1114 631 
Q 1144 563 1211 522 
Q 1278 481 1403 481 
Q 1497 481 1650 503 
z
" transform="scale(0.015625)"/>
      <path id="ArialMT-65" d="M 2694 1069 
L 3275 997 
Q 3138 488 2766 206 
Q 2394 -75 1816 -75 
Q 1088 -75 661 373 
Q 234 822 234 1631 
Q 234 2469 665 2931 
Q 1097 3394 1784 3394 
Q 2450 3394 2872 2941 
Q 3294 2488 3294 1666 
Q 3294 1616 3291 1516 
L 816 1516 
Q 847 969 1125 678 
Q 1403 388 1819 388 
Q 2128 388 2347 550 
Q 2566 713 2694 1069 
z
M 847 1978 
L 2700 1978 
Q 2663 2397 2488 2606 
Q 2219 2931 1791 2931 
Q 1403 2931 1139 2672 
Q 875 2413 847 1978 
z
" transform="scale(0.015625)"/>
      <path id="ArialMT-72" d="M 416 0 
L 416 3319 
L 922 3319 
L 922 2816 
Q 1116 3169 1280 3281 
Q 1444 3394 1641 3394 
Q 1925 3394 2219 3213 
L 2025 2691 
Q 1819 2813 1613 2813 
Q 1428 2813 1281 2702 
Q 1134 2591 1072 2394 
Q 978 2094 978 1738 
L 978 0 
L 416 0 
z
" transform="scale(0.015625)"/>
      <path id="ArialMT-73" d="M 197 991 
L 753 1078 
Q 800 744 1014 566 
Q 1228 388 1613 388 
Q 2000 388 2187 545 
Q 2375 703 2375 916 
Q 2375 1106 2209 1216 
Q 2094 1291 1634 1406 
Q 1016 1563 777 1677 
Q 538 1791 414 1992 
Q 291 2194 291 2438 
Q 291 2659 392 2848 
Q 494 3038 669 3163 
Q 800 3259 1026 3326 
Q 1253 3394 1513 3394 
Q 1903 3394 2198 3281 
Q 2494 3169 2634 2976 
Q 2775 2784 2828 2463 
L 2278 2388 
Q 2241 2644 2061 2787 
Q 1881 2931 1553 2931 
Q 1166 2931 1000 2803 
Q 834 2675 834 2503 
Q 834 2394 903 2306 
Q 972 2216 1119 2156 
Q 1203 2125 1616 2013 
Q 2213 1853 2448 1751 
Q 2684 1650 2818 1456 
Q 2953 1263 2953 975 
Q 2953 694 2789 445 
Q 2625 197 2315 61 
Q 2006 -75 1616 -75 
Q 969 -75 630 194 
Q 291 463 197 991 
z
" transform="scale(0.015625)"/>
      <path id="ArialMT-63" d="M 2588 1216 
L 3141 1144 
Q 3050 572 2676 248 
Q 2303 -75 1759 -75 
Q 1078 -75 664 370 
Q 250 816 250 1647 
Q 250 2184 428 2587 
Q 606 2991 970 3192 
Q 1334 3394 1763 3394 
Q 2303 3394 2647 3120 
Q 2991 2847 3088 2344 
L 2541 2259 
Q 2463 2594 2264 2762 
Q 2066 2931 1784 2931 
Q 1359 2931 1093 2626 
Q 828 2322 828 1663 
Q 828 994 1084 691 
Q 1341 388 1753 388 
Q 2084 388 2306 591 
Q 2528 794 2588 1216 
z
" transform="scale(0.015625)"/>
      <path id="ArialMT-6f" d="M 213 1659 
Q 213 2581 725 3025 
Q 1153 3394 1769 3394 
Q 2453 3394 2887 2945 
Q 3322 2497 3322 1706 
Q 3322 1066 3130 698 
Q 2938 331 2570 128 
Q 2203 -75 1769 -75 
Q 1072 -75 642 372 
Q 213 819 213 1659 
z
M 791 1659 
Q 791 1022 1069 705 
Q 1347 388 1769 388 
Q 2188 388 2466 706 
Q 2744 1025 2744 1678 
Q 2744 2294 2464 2611 
Q 2184 2928 1769 2928 
Q 1347 2928 1069 2612 
Q 791 2297 791 1659 
z
" transform="scale(0.015625)"/>
      <path id="ArialMT-20" transform="scale(0.015625)"/>
      <path id="ArialMT-70" d="M 422 -1272 
L 422 3319 
L 934 3319 
L 934 2888 
Q 1116 3141 1344 3267 
Q 1572 3394 1897 3394 
Q 2322 3394 2647 3175 
Q 2972 2956 3137 2557 
Q 3303 2159 3303 1684 
Q 3303 1175 3120 767 
Q 2938 359 2589 142 
Q 2241 -75 1856 -75 
Q 1575 -75 1351 44 
Q 1128 163 984 344 
L 984 -1272 
L 422 -1272 
z
M 931 1641 
Q 931 1000 1190 694 
Q 1450 388 1819 388 
Q 2194 388 2461 705 
Q 2728 1022 2728 1688 
Q 2728 2322 2467 2637 
Q 2206 2953 1844 2953 
Q 1484 2953 1207 2617 
Q 931 2281 931 1641 
z
" transform="scale(0.015625)"/>
      <path id="ArialMT-66" d="M 556 0 
L 556 2881 
L 59 2881 
L 59 3319 
L 556 3319 
L 556 3672 
Q 556 4006 616 4169 
Q 697 4388 901 4523 
Q 1106 4659 1475 4659 
Q 1713 4659 2000 4603 
L 1916 4113 
Q 1741 4144 1584 4144 
Q 1328 4144 1222 4034 
Q 1116 3925 1116 3625 
L 1116 3319 
L 1763 3319 
L 1763 2881 
L 1116 2881 
L 1116 0 
L 556 0 
z
" transform="scale(0.015625)"/>
      <path id="ArialMT-61" d="M 2588 409 
Q 2275 144 1986 34 
Q 1697 -75 1366 -75 
Q 819 -75 525 192 
Q 231 459 231 875 
Q 231 1119 342 1320 
Q 453 1522 633 1644 
Q 813 1766 1038 1828 
Q 1203 1872 1538 1913 
Q 2219 1994 2541 2106 
Q 2544 2222 2544 2253 
Q 2544 2597 2384 2738 
Q 2169 2928 1744 2928 
Q 1347 2928 1158 2789 
Q 969 2650 878 2297 
L 328 2372 
Q 403 2725 575 2942 
Q 747 3159 1072 3276 
Q 1397 3394 1825 3394 
Q 2250 3394 2515 3294 
Q 2781 3194 2906 3042 
Q 3031 2891 3081 2659 
Q 3109 2516 3109 2141 
L 3109 1391 
Q 3109 606 3145 398 
Q 3181 191 3288 0 
L 2700 0 
Q 2613 175 2588 409 
z
M 2541 1666 
Q 2234 1541 1622 1453 
Q 1275 1403 1131 1340 
Q 988 1278 909 1158 
Q 831 1038 831 891 
Q 831 666 1001 516 
Q 1172 366 1500 366 
Q 1825 366 2078 508 
Q 2331 650 2450 897 
Q 2541 1088 2541 1459 
L 2541 1666 
z
" transform="scale(0.015625)"/>
      <path id="ArialMT-64" d="M 2575 0 
L 2575 419 
Q 2259 -75 1647 -75 
Q 1250 -75 917 144 
Q 584 363 401 755 
Q 219 1147 219 1656 
Q 219 2153 384 2558 
Q 550 2963 881 3178 
Q 1213 3394 1622 3394 
Q 1922 3394 2156 3267 
Q 2391 3141 2538 2938 
L 2538 4581 
L 3097 4581 
L 3097 0 
L 2575 0 
z
M 797 1656 
Q 797 1019 1065 703 
Q 1334 388 1700 388 
Q 2069 388 2326 689 
Q 2584 991 2584 1609 
Q 2584 2291 2321 2609 
Q 2059 2928 1675 2928 
Q 1300 2928 1048 2622 
Q 797 2316 797 1656 
z
" transform="scale(0.015625)"/>
     </defs>
     <use xlink:href="#ArialMT-69"/>
     <use xlink:href="#ArialMT-6e" x="22.216797"/>
     <use xlink:href="#ArialMT-74" x="77.832031"/>
     <use xlink:href="#ArialMT-65" x="105.615234"/>
     <use xlink:href="#ArialMT-72" x="161.230469"/>
     <use xlink:href="#ArialMT-73" x="194.53125"/>
     <use xlink:href="#ArialMT-65" x="244.53125"/>
     <use xlink:href="#ArialMT-63" x="300.146484"/>
     <use xlink:href="#ArialMT-74" x="350.146484"/>
     <use xlink:href="#ArialMT-69" x="377.929688"/>
     <use xlink:href="#ArialMT-6f" x="400.146484"/>
     <use xlink:href="#ArialMT-6e" x="455.761719"/>
     <use xlink:href="#ArialMT-20" x="511.376953"/>
     <use xlink:href="#ArialMT-70" x="539.160156"/>
     <use xlink:href="#ArialMT-6f" x="594.775391"/>
     <use xlink:href="#ArialMT-69" x="650.390625"/>
     <use xlink:href="#ArialMT-6e" x="672.607422"/>
     <use xlink:href="#ArialMT-74" x="728.222656"/>
     <use xlink:href="#ArialMT-20" x="756.005859"/>
     <use xlink:href="#ArialMT-6f" x="783.789062"/>
     <use xlink:href="#ArialMT-66" x="839.404297"/>
     <use xlink:href="#ArialMT-20" x="867.1875"/>
     <use xlink:href="#ArialMT-66" x="894.970703"/>
     <use xlink:href="#ArialMT-30" x="922.753906"/>
     <use xlink:href="#ArialMT-20" x="978.369141"/>
     <use xlink:href="#ArialMT-61" x="1006.152344"/>
     <use xlink:href="#ArialMT-6e" x="1061.767578"/>
     <use xlink:href="#ArialMT-64" x="1117.382812"/>
     <use xlink:href="#ArialMT-20" x="1172.998047"/>
     <use xlink:href="#ArialMT-66" x="1200.78125"/>
     <use xlink:href="#ArialMT-31" x="1228.564453"/>
    </g>
   </g>
   <g id="text_19">
    <!-- intersection point of f1 and f2 -->
    <g style="fill: #262626" transform="translate(92.290909 233.28)scale(0.1 -0.1)">
     <use xlink:href="#ArialMT-69"/>
     <use xlink:href="#ArialMT-6e" x="22.216797"/>
     <use xlink:href="#ArialMT-74" x="77.832031"/>
     <use xlink:href="#ArialMT-65" x="105.615234"/>
     <use xlink:href="#ArialMT-72" x="161.230469"/>
     <use xlink:href="#ArialMT-73" x="194.53125"/>
     <use xlink:href="#ArialMT-65" x="244.53125"/>
     <use xlink:href="#ArialMT-63" x="300.146484"/>
     <use xlink:href="#ArialMT-74" x="350.146484"/>
     <use xlink:href="#ArialMT-69" x="377.929688"/>
     <use xlink:href="#ArialMT-6f" x="400.146484"/>
     <use xlink:href="#ArialMT-6e" x="455.761719"/>
     <use xlink:href="#ArialMT-20" x="511.376953"/>
     <use xlink:href="#ArialMT-70" x="539.160156"/>
     <use xlink:href="#ArialMT-6f" x="594.775391"/>
     <use xlink:href="#ArialMT-69" x="650.390625"/>
     <use xlink:href="#ArialMT-6e" x="672.607422"/>
     <use xlink:href="#ArialMT-74" x="728.222656"/>
     <use xlink:href="#ArialMT-20" x="756.005859"/>
     <use xlink:href="#ArialMT-6f" x="783.789062"/>
     <use xlink:href="#ArialMT-66" x="839.404297"/>
     <use xlink:href="#ArialMT-20" x="867.1875"/>
     <use xlink:href="#ArialMT-66" x="894.970703"/>
     <use xlink:href="#ArialMT-31" x="922.753906"/>
     <use xlink:href="#ArialMT-20" x="978.369141"/>
     <use xlink:href="#ArialMT-61" x="1006.152344"/>
     <use xlink:href="#ArialMT-6e" x="1061.767578"/>
     <use xlink:href="#ArialMT-64" x="1117.382812"/>
     <use xlink:href="#ArialMT-20" x="1172.998047"/>
     <use xlink:href="#ArialMT-66" x="1200.78125"/>
     <use xlink:href="#ArialMT-32" x="1228.564453"/>
    </g>
   </g>
   <g id="text_20">
    <!-- intersection point of f0 and f2 -->
    <g style="fill: #262626" transform="translate(214.036364 112.32)scale(0.1 -0.1)">
     <use xlink:href="#ArialMT-69"/>
     <use xlink:href="#ArialMT-6e" x="22.216797"/>
     <use xlink:href="#ArialMT-74" x="77.832031"/>
     <use xlink:href="#ArialMT-65" x="105.615234"/>
     <use xlink:href="#ArialMT-72" x="161.230469"/>
     <use xlink:href="#ArialMT-73" x="194.53125"/>
     <use xlink:href="#ArialMT-65" x="244.53125"/>
     <use xlink:href="#ArialMT-63" x="300.146484"/>
     <use xlink:href="#ArialMT-74" x="350.146484"/>
     <use xlink:href="#ArialMT-69" x="377.929688"/>
     <use xlink:href="#ArialMT-6f" x="400.146484"/>
     <use xlink:href="#ArialMT-6e" x="455.761719"/>
     <use xlink:href="#ArialMT-20" x="511.376953"/>
     <use xlink:href="#ArialMT-70" x="539.160156"/>
     <use xlink:href="#ArialMT-6f" x="594.775391"/>
     <use xlink:href="#ArialMT-69" x="650.390625"/>
     <use xlink:href="#ArialMT-6e" x="672.607422"/>
     <use xlink:href="#ArialMT-74" x="728.222656"/>
     <use xlink:href="#ArialMT-20" x="756.005859"/>
     <use xlink:href="#ArialMT-6f" x="783.789062"/>
     <use xlink:href="#ArialMT-66" x="839.404297"/>
     <use xlink:href="#ArialMT-20" x="867.1875"/>
     <use xlink:href="#ArialMT-66" x="894.970703"/>
     <use xlink:href="#ArialMT-30" x="922.753906"/>
     <use xlink:href="#ArialMT-20" x="978.369141"/>
     <use xlink:href="#ArialMT-61" x="1006.152344"/>
     <use xlink:href="#ArialMT-6e" x="1061.767578"/>
     <use xlink:href="#ArialMT-64" x="1117.382812"/>
     <use xlink:href="#ArialMT-20" x="1172.998047"/>
     <use xlink:href="#ArialMT-66" x="1200.78125"/>
     <use xlink:href="#ArialMT-32" x="1228.564453"/>
    </g>
   </g>
   <g id="text_21">
    <!-- All lines -->
    <g style="fill: #262626" transform="translate(274.525312 45.84)scale(0.12 -0.12)">
     <defs>
      <path id="ArialMT-41" d="M -9 0 
L 1750 4581 
L 2403 4581 
L 4278 0 
L 3588 0 
L 3053 1388 
L 1138 1388 
L 634 0 
L -9 0 
z
M 1313 1881 
L 2866 1881 
L 2388 3150 
Q 2169 3728 2063 4100 
Q 1975 3659 1816 3225 
L 1313 1881 
z
" transform="scale(0.015625)"/>
      <path id="ArialMT-6c" d="M 409 0 
L 409 4581 
L 972 4581 
L 972 0 
L 409 0 
z
" transform="scale(0.015625)"/>
     </defs>
     <use xlink:href="#ArialMT-41"/>
     <use xlink:href="#ArialMT-6c" x="66.699219"/>
     <use xlink:href="#ArialMT-6c" x="88.916016"/>
     <use xlink:href="#ArialMT-20" x="111.132812"/>
     <use xlink:href="#ArialMT-6c" x="138.916016"/>
     <use xlink:href="#ArialMT-69" x="161.132812"/>
     <use xlink:href="#ArialMT-6e" x="183.349609"/>
     <use xlink:href="#ArialMT-65" x="238.964844"/>
     <use xlink:href="#ArialMT-73" x="294.580078"/>
    </g>
   </g>
   <g id="legend_1">
    <g id="line2d_31">
     <path d="M 81 64.7525 
L 91 64.7525 
L 101 64.7525 
" style="fill: none; stroke-dasharray: 1.5,2.475; stroke-dashoffset: 0; stroke: #48d1cc; stroke-width: 1.5"/>
    </g>
    <g id="text_22">
     <!-- $f_0$ -->
     <g style="fill: #262626" transform="translate(109 68.2525)scale(0.1 -0.1)">
      <defs>
       <path id="DejaVuSans-Oblique-66" d="M 3059 4863 
L 2969 4384 
L 2419 4384 
Q 2106 4384 1964 4261 
Q 1822 4138 1753 3809 
L 1691 3500 
L 2638 3500 
L 2553 3053 
L 1606 3053 
L 1013 0 
L 434 0 
L 1031 3053 
L 481 3053 
L 563 3500 
L 1113 3500 
L 1159 3744 
Q 1278 4363 1576 4613 
Q 1875 4863 2516 4863 
L 3059 4863 
z
" transform="scale(0.015625)"/>
      </defs>
      <use xlink:href="#DejaVuSans-Oblique-66" transform="translate(0 0.015625)"/>
      <use xlink:href="#DejaVuSans-30" transform="translate(35.205078 -16.390625)scale(0.7)"/>
     </g>
    </g>
    <g id="line2d_32">
     <path d="M 81 79.0525 
L 91 79.0525 
L 101 79.0525 
" style="fill: none; stroke-dasharray: 5.55,2.4; stroke-dashoffset: 0; stroke: #ff4500; stroke-width: 1.5"/>
    </g>
    <g id="text_23">
     <!-- $f_1$ -->
     <g style="fill: #262626" transform="translate(109 82.5525)scale(0.1 -0.1)">
      <use xlink:href="#DejaVuSans-Oblique-66" transform="translate(0 0.015625)"/>
      <use xlink:href="#DejaVuSans-31" transform="translate(35.205078 -16.390625)scale(0.7)"/>
     </g>
    </g>
    <g id="line2d_33">
     <path d="M 81 93.3525 
L 91 93.3525 
L 101 93.3525 
" style="fill: none; stroke-dasharray: 9.6,2.4,1.5,2.4; stroke-dashoffset: 0; stroke: #f0e68c; stroke-width: 1.5"/>
    </g>
    <g id="text_24">
     <!-- $f_2$ -->
     <g style="fill: #262626" transform="translate(109 96.8525)scale(0.1 -0.1)">
      <use xlink:href="#DejaVuSans-Oblique-66" transform="translate(0 0.015625)"/>
      <use xlink:href="#DejaVuSans-32" transform="translate(35.205078 -16.390625)scale(0.7)"/>
     </g>
    </g>
   </g>
  </g>
 </g>
 <defs>
  <clipPath id="p1af70d1c62">
   <rect x="72" y="51.84" width="446.4" height="332.64"/>
  </clipPath>
 </defs>
</svg>
